<?xml version="1.0" standalone="no"?>
<!DOCTYPE svg PUBLIC "-//W3C//DTD SVG 20010904//EN"
 "http://www.w3.org/TR/2001/REC-SVG-20010904/DTD/svg10.dtd">
<svg version="1.0" xmlns="http://www.w3.org/2000/svg"
 width="980.000000pt" height="980.000000pt" viewBox="0 0 980.000000 980.000000"
 preserveAspectRatio="xMidYMid meet">

<g transform="translate(0.000000,980.000000) scale(0.100000,-0.100000)"
fill="#000000" stroke="none">
<path d="M2451 7893 l-2443 -1898 2446 -3 c1345 -1 3547 -1 4892 0 l2447 3
-1384 1074 c-761 591 -1858 1443 -2438 1894 -580 450 -1059 821 -1065 823 -6
2 -1111 -850 -2455 -1893z"/>
<path d="M6360 9311 l0 -359 680 -529 c374 -290 685 -529 690 -531 7 -2 10
312 10 887 l0 891 -690 0 -690 0 0 -359z"/>
<path d="M1297 5753 c-4 -3 -7 -1297 -7 -2875 l0 -2868 1270 0 1270 0 0 920 0
920 1033 -2 1032 -3 3 -918 2 -917 1150 0 1150 0 0 2875 0 2875 -3448 0
c-1897 0 -3452 -3 -3455 -7z m1603 -1488 l0 -805 -340 0 -340 0 0 805 0 805
340 0 340 0 0 -805z m1160 0 l0 -805 -345 0 -345 0 0 805 0 805 345 0 345 0 0
-805z m2070 0 l0 -805 -345 0 -345 0 0 805 0 805 345 0 345 0 0 -805z m1150 0
l0 -805 -345 0 -345 0 0 805 0 805 345 0 345 0 0 -805z"/>
</g>
</svg>
