<?xml version="1.0" standalone="no"?>
<!DOCTYPE svg PUBLIC "-//W3C//DTD SVG 20010904//EN"
 "http://www.w3.org/TR/2001/REC-SVG-20010904/DTD/svg10.dtd">
<svg version="1.0" xmlns="http://www.w3.org/2000/svg"
 width="1276.000000pt" height="1276.000000pt" viewBox="0 0 1276.000000 1276.000000"
 preserveAspectRatio="xMidYMid meet">
<metadata>
Created by potrace 1.15, written by Peter Selinger 2001-2017
</metadata>
<g transform="translate(0.000000,1276.000000) scale(0.100000,-0.100000)"
fill="#000000" stroke="none">
<path d="M6245 12140 l-2340 -5 -53 -24 c-73 -33 -127 -97 -152 -180 -11 -36
-294 -1195 -630 -2576 -336 -1380 -617 -2528 -626 -2550 -8 -22 -87 -173 -174
-335 -200 -372 -214 -402 -214 -467 -1 -44 3 -56 28 -82 16 -17 48 -37 70 -46
36 -13 1500 -415 2731 -751 237 -64 434 -121 440 -125 11 -11 -39 -177 -105
-348 -27 -69 -48 -127 -46 -128 4 -4 594 -191 615 -195 8 -2 32 39 65 112 47
105 51 112 54 80 3 -35 4 -35 42 -32 24 3 40 0 40 -7 0 -20 -43 -127 -117
-290 -85 -186 -111 -274 -97 -324 26 -88 122 -25 519 338 50 46 108 99 129
119 22 20 38 37 35 39 -2 2 -96 41 -209 86 -113 45 -210 85 -217 89 -8 5 -4
35 18 111 16 58 29 112 29 122 0 10 4 20 9 23 8 6 628 -158 638 -168 4 -4 -12
-77 -24 -106 -8 -18 -7 -17 -16 -60 -4 -19 -34 -107 -67 -194 -33 -88 -57
-163 -53 -167 8 -6 612 -209 624 -209 4 0 26 45 50 101 33 76 45 95 47 76 3
-21 10 -27 44 -32 22 -4 44 -3 48 1 12 13 78 245 89 316 6 33 13 63 16 66 3 3
33 -3 67 -12 266 -74 1104 -296 1112 -293 5 2 -74 25 -175 51 -213 56 -1012
274 -2364 644 -2685 736 -3929 1079 -3968 1096 -53 22 -80 60 -79 108 1 56 14
86 178 388 77 141 157 293 179 338 22 45 46 82 53 82 12 0 1081 -239 2637
-589 1474 -332 1755 -395 2205 -495 434 -96 1248 -278 2438 -546 249 -56 455
-100 458 -97 3 2 219 1535 479 3406 420 3008 474 3407 465 3449 -20 90 -87
161 -176 188 -51 15 259 15 -4749 4z m4655 -1735 c0 -5 -271 -1937 -363 -2587
-35 -246 -66 -450 -70 -454 -15 -15 -16 6 -2 106 8 58 57 440 110 850 104 820
196 1512 246 1863 32 222 33 227 56 227 13 0 23 -2 23 -5z"/>
<path d="M5543 5799 c-75 -29 -155 -106 -195 -187 -29 -58 -33 -77 -33 -142 0
-58 6 -85 23 -117 60 -114 198 -144 332 -72 75 40 123 92 163 178 57 120 37
253 -45 314 -69 51 -156 60 -245 26z m37 -152 c0 -8 -9 -22 -21 -33 -27 -24
-82 -132 -74 -144 8 -13 113 -43 129 -37 19 7 76 112 76 139 0 13 4 29 9 37 8
12 12 12 25 2 24 -20 20 -38 -27 -126 -54 -103 -68 -110 -166 -85 -86 23 -101
33 -101 69 0 36 76 170 103 181 32 13 47 12 47 -3z"/>
<path d="M2857 4319 c-60 -9 -293 -74 -318 -89 -40 -25 15 -17 148 22 l148 43
165 0 165 0 194 -68 c177 -61 222 -72 195 -48 -19 16 -371 131 -434 141 -75
11 -180 11 -263 -1z"/>
<path d="M3094 4171 c-67 -11 -140 -44 -154 -71 -29 -55 61 -100 201 -100 136
0 240 36 247 87 9 59 -155 105 -294 84z m222 -34 c47 -24 51 -47 15 -79 -57
-51 -232 -63 -317 -22 -67 33 -52 81 35 109 62 20 224 15 267 -8z"/>
<path d="M8924 4042 c16 -7 14 -11 -20 -41 -21 -19 -60 -49 -88 -68 -28 -19
-72 -49 -99 -67 l-47 -33 55 -7 c44 -5 63 -2 93 13 68 35 120 80 147 126 15
25 32 45 38 45 7 0 59 -11 117 -24 95 -22 122 -25 109 -11 -3 2 -63 18 -135
34 -174 39 -193 43 -170 33z"/>
<path d="M5040 4018 c0 -5 13 -22 29 -36 21 -20 106 -53 327 -126 164 -54 306
-101 314 -104 8 -4 3 8 -12 26 -14 17 -28 36 -30 42 -2 6 -109 45 -238 86
-368 117 -390 123 -390 112z"/>
<path d="M2651 3979 c-83 -10 -169 -52 -177 -85 -9 -35 18 -61 85 -81 l56 -17
-82 -7 c-46 -4 -88 -11 -94 -15 -7 -4 -2 7 11 23 18 25 20 34 11 52 -17 31
-66 52 -130 56 l-56 4 49 -9 c143 -26 129 -119 -22 -151 -104 -21 -250 5 -267
49 -16 41 47 86 142 102 34 5 39 8 19 9 -47 2 -144 -29 -172 -55 -47 -44 -13
-96 76 -113 l45 -9 -45 -2 c-43 -2 -43 -3 18 -11 120 -15 170 -45 158 -93 -8
-31 -73 -63 -152 -75 -52 -7 -54 -9 -19 -10 22 0 55 3 73 8 37 11 39 8 12 -19
-42 -42 -11 -88 74 -112 l50 -15 -75 -6 c-41 -4 -85 -10 -99 -14 l-24 -6 22
28 c12 15 22 33 22 40 0 22 -56 62 -104 74 -49 12 -66 28 -18 17 20 -5 23 -4
12 4 -8 5 -31 10 -50 10 -48 1 -117 33 -125 60 -13 41 56 86 155 103 23 4 23
4 -4 6 -42 2 -134 -30 -162 -56 -46 -42 -22 -84 64 -115 l47 -16 -47 -1 c-96
-2 -188 -31 -235 -74 -31 -28 -29 -50 6 -80 53 -44 188 -57 321 -31 l35 7 -23
-26 c-85 -93 134 -169 336 -117 l33 9 -26 -30 c-14 -17 -25 -37 -25 -45 0 -24
47 -61 98 -75 57 -17 225 -18 270 -2 37 14 40 11 12 -17 -24 -24 -26 -57 -3
-82 22 -25 7 -23 -77 12 -119 49 -228 60 -340 33 l-25 -6 27 22 c54 43 45 86
-25 123 -36 19 -58 22 -152 23 -60 0 -127 -4 -147 -8 l-38 -8 25 25 c14 14 25
34 25 45 0 31 -54 68 -117 82 -57 11 -191 8 -243 -7 l-25 -7 23 25 c12 13 22
33 22 44 0 54 -78 84 -217 84 -108 0 -201 -25 -244 -66 -37 -35 -37 -56 0 -87
53 -44 189 -57 322 -30 l31 6 -26 -26 c-29 -29 -31 -39 -15 -69 33 -62 247
-87 374 -43 16 6 15 3 -6 -16 -51 -46 -43 -86 23 -121 37 -19 59 -22 153 -23
61 0 125 3 143 7 l34 8 -26 -31 c-14 -17 -26 -35 -26 -41 0 -28 75 -69 295
-160 132 -55 377 -157 545 -228 276 -116 504 -210 633 -261 26 -10 47 -15 47
-10 0 9 -308 141 -985 421 -253 105 -468 199 -479 209 -65 66 100 146 251 122
34 -5 170 -55 319 -116 316 -130 782 -315 792 -315 4 0 -4 10 -18 21 -24 20
-24 20 -2 14 37 -11 25 3 -22 24 -24 10 -52 30 -61 44 -15 23 -15 28 -1 55 10
19 31 36 61 48 47 20 65 41 19 24 -40 -16 -45 -12 -19 15 60 60 5 122 -130
147 -11 2 15 7 59 11 84 7 156 25 156 38 0 5 -19 1 -42 -8 -27 -9 -77 -16
-134 -16 -77 -1 -98 3 -139 24 -27 13 -55 34 -62 45 -12 19 -11 25 12 52 14
17 41 36 61 42 99 33 246 28 311 -10 18 -10 35 -15 37 -11 6 9 -51 36 -104 49
-31 7 -25 9 49 14 46 4 88 11 93 16 6 6 -10 6 -44 0 -109 -20 -250 10 -277 60
-31 58 72 111 214 111 80 0 112 -6 178 -34 10 -4 17 -3 17 4 0 33 -234 56
-319 31 -42 -12 -47 -9 -21 15 25 22 26 57 2 78 -24 22 -85 47 -119 48 -15 1
11 7 59 14 48 7 94 15 103 18 11 5 9 -1 -7 -23 -42 -57 4 -100 131 -122 83
-14 225 1 251 27 13 13 9 13 -25 -1 -29 -13 -68 -18 -140 -18 -112 0 -162 15
-190 57 -23 36 -8 59 57 88 43 19 70 23 148 24 82 0 102 -3 145 -25 35 -18 51
-32 53 -48 2 -13 9 -21 15 -19 40 13 -9 68 -81 88 -53 15 -173 18 -245 6 l-48
-8 20 20 c53 53 -7 103 -145 122 -70 9 -106 8 -189 -8 -30 -5 -30 -5 -12 15
53 59 -29 114 -178 120 -49 2 -109 -1 -132 -6 l-42 -10 20 27 c12 16 17 34 13
44 -9 24 -72 55 -126 62 -84 11 -94 12 -157 4z m198 -37 c46 -23 59 -45 40
-68 -59 -71 -308 -84 -369 -19 -26 28 -22 47 15 71 68 45 239 54 314 16z m334
-115 c102 -43 52 -115 -95 -136 -166 -23 -303 47 -216 112 60 45 229 58 311
24z m-468 -72 c33 -17 40 -25 40 -50 0 -24 -7 -33 -40 -52 -60 -34 -158 -48
-236 -34 -209 36 -118 166 111 158 59 -2 97 -9 125 -22z m812 -55 c125 -54 24
-143 -163 -144 -100 0 -177 32 -182 75 -9 78 218 123 345 69z m-496 -61 c21
-7 48 -23 61 -36 l22 -23 -20 -28 c-47 -63 -249 -87 -343 -40 -116 58 -23 136
163 137 43 1 96 -4 117 -10z m-512 -60 c57 -12 101 -42 101 -68 0 -25 -38 -58
-90 -77 -68 -25 -212 -24 -272 3 -27 12 -49 30 -53 43 -23 72 164 131 314 99z
m862 -70 c19 -5 46 -20 59 -34 20 -22 22 -28 12 -50 -21 -47 -92 -70 -212 -70
-89 0 -111 4 -147 23 -151 80 76 184 288 131z m-1327 -7 c97 -34 93 -90 -9
-131 -113 -45 -305 -28 -336 31 -42 79 202 150 345 100z m856 -75 c38 -19 45
-26 45 -52 0 -59 -114 -102 -250 -93 -117 8 -184 53 -151 102 46 71 248 95
356 43z m-1333 -6 c102 -47 41 -126 -118 -152 -103 -17 -227 9 -250 53 -12 23
8 60 43 79 79 43 251 53 325 20z m838 -61 c72 -35 68 -82 -10 -120 -118 -56
-339 -37 -361 32 -13 41 50 89 139 108 67 14 182 4 232 -20z m822 -55 c88 -26
108 -79 45 -121 -114 -77 -391 -45 -380 44 9 72 201 117 335 77z m-1320 -23
c48 -25 59 -47 38 -78 -23 -35 -85 -63 -169 -76 -63 -10 -84 -9 -142 5 -75 19
-104 39 -104 73 0 19 49 73 68 74 4 1 30 7 57 15 70 21 198 14 252 -13z m806
-43 c21 -5 52 -23 70 -38 28 -26 30 -31 20 -54 -35 -76 -251 -109 -371 -57
-47 21 -57 37 -48 75 16 63 211 107 329 74z m-499 -83 c124 -38 113 -114 -24
-157 -140 -43 -320 -6 -320 67 0 19 49 73 68 74 4 1 30 7 57 15 66 18 160 18
219 1z m847 -57 c30 -7 64 -22 83 -40 30 -27 30 -29 16 -56 -9 -16 -37 -39
-65 -53 -44 -22 -63 -25 -155 -25 -81 0 -115 4 -147 18 -168 76 50 203 268
156z m418 -162 c53 -26 66 -45 57 -81 -5 -21 -20 -34 -64 -54 -150 -68 -399
-18 -366 75 11 31 76 68 144 83 67 13 178 3 229 -23z m-18 -183 c-12 -15 -21
-34 -21 -44 0 -10 9 -29 21 -44 11 -14 19 -26 16 -26 -5 0 -271 111 -275 115
-2 2 41 4 95 4 54 1 112 5 128 10 52 16 58 13 36 -15z"/>
<path d="M3745 3930 c-94 -20 -135 -48 -135 -90 0 -37 61 -70 138 -75 l57 -4
-48 9 c-72 13 -112 40 -112 76 0 25 7 32 50 54 43 22 63 25 150 25 105 0 165
-18 189 -57 23 -37 -34 -81 -125 -97 l-54 -10 50 4 c28 2 59 7 69 11 17 7 17
4 -3 -23 -19 -26 -21 -34 -11 -53 15 -28 80 -57 145 -64 28 -3 41 -3 30 0 -11
3 -44 12 -72 20 -120 33 -97 116 40 144 27 5 33 8 17 9 -14 1 -40 -3 -59 -9
l-34 -9 22 22 c38 41 22 71 -53 102 -45 19 -193 28 -251 15z"/>
<path d="M7286 3792 c-61 -119 -136 -323 -136 -369 0 -7 9 -22 20 -33 32 -32
90 -25 245 28 355 123 807 286 799 289 -5 1 -200 25 -434 53 -234 27 -437 52
-452 55 -23 4 -30 -1 -42 -23z"/>
<path d="M6415 3550 c8 -16 25 -35 38 -42 22 -12 650 -219 653 -215 1 1 -14
21 -35 43 -35 40 -45 45 -341 143 -168 55 -311 101 -318 101 -10 0 -9 -7 3
-30z"/>
<path d="M5405 3411 c3 -5 18 -12 34 -16 45 -10 73 -46 69 -91 -3 -38 -2 -39
27 -36 17 2 84 4 150 5 111 2 123 0 163 -23 69 -39 69 -85 1 -125 -29 -17 -52
-20 -146 -20 -121 0 -149 -9 -55 -17 55 -5 135 2 197 17 29 8 30 8 13 -12 -25
-28 -22 -55 10 -86 39 -38 104 -58 205 -64 98 -6 198 14 242 49 51 40 17 109
-67 137 -88 28 -254 31 -321 5 -16 -6 -16 -5 0 24 16 28 16 31 -1 57 -33 50
-96 69 -231 70 -66 0 -136 -4 -155 -9 -34 -8 -35 -8 -17 11 37 42 8 89 -72
118 -51 18 -54 18 -46 6z m838 -300 c86 -42 86 -94 -1 -134 -37 -17 -65 -22
-137 -22 -104 1 -162 15 -205 51 -37 31 -38 57 -4 89 36 34 86 44 199 42 81
-2 109 -7 148 -26z"/>
<path d="M790 3336 c0 -55 16 -83 62 -109 35 -21 5172 -2216 5329 -2278 96
-37 204 -52 343 -46 153 6 219 22 336 81 101 51 547 329 743 462 272 186 863
606 895 637 27 26 32 38 32 79 0 26 -3 48 -8 48 -10 0 -264 -142 -440 -247
-234 -139 -476 -307 -997 -691 -137 -102 -275 -196 -305 -209 -124 -56 -290
-66 -470 -28 -130 27 -624 232 -3595 1490 -594 252 -1163 493 -1265 536 -496
208 -587 249 -622 279 l-38 31 0 -35z"/>
<path d="M5654 2912 c3 -5 30 -12 61 -15 109 -11 183 -79 139 -128 -25 -28
-91 -58 -129 -59 -16 0 -37 -5 -45 -10 -23 -15 13 -13 85 5 78 19 79 19 55 -5
-28 -28 -25 -62 8 -92 74 -71 238 -93 395 -53 l27 7 -17 -31 c-16 -28 -17 -33
-3 -58 36 -67 206 -114 340 -95 41 6 86 14 100 18 24 7 24 7 8 -13 -41 -46 -7
-102 87 -144 82 -37 271 -38 360 -3 19 7 19 7 3 -13 -48 -54 5 -128 120 -164
82 -25 232 -28 306 -5 59 18 106 60 106 94 0 38 -65 94 -134 115 -103 33 -254
33 -345 0 -14 -6 -14 -4 2 14 51 58 -20 133 -154 163 -57 13 -229 9 -279 -5
-21 -6 -23 -5 -12 6 6 7 12 27 12 44 0 73 -117 125 -281 125 -47 0 -106 -6
-131 -14 l-46 -13 16 26 c37 65 -26 120 -169 149 -80 15 -166 11 -248 -14 -24
-7 -24 -7 -8 17 9 13 17 32 17 42 0 30 -57 76 -114 91 -69 19 -139 28 -132 18z
m558 -190 c92 -40 99 -100 16 -143 -59 -31 -201 -38 -283 -14 -62 18 -115 60
-115 92 0 21 30 53 68 72 62 33 234 29 314 -7z m373 -137 c203 -53 163 -182
-61 -193 -148 -7 -264 40 -264 107 0 79 175 125 325 86z m480 -174 c64 -28 95
-58 95 -91 0 -51 -72 -89 -184 -97 -121 -9 -248 35 -276 96 -19 42 30 90 115
112 56 15 197 4 250 -20z m432 -157 c64 -18 123 -66 123 -100 0 -64 -111 -110
-240 -101 -131 9 -232 62 -232 121 0 33 14 50 59 71 76 36 182 39 290 9z"/>
<path d="M6761 2846 c-95 -31 -118 -92 -55 -145 56 -46 140 -64 270 -59 60 3
117 8 128 13 16 7 17 6 7 -13 -6 -11 -11 -29 -11 -39 0 -21 41 -63 80 -83 76
-40 254 -53 343 -26 42 13 63 7 37 -9 -5 -3 -10 -20 -10 -37 0 -113 322 -179
480 -98 61 31 69 85 19 131 -69 65 -296 96 -406 57 -42 -15 -42 -15 -28 6 8
11 15 30 15 41 0 24 -40 65 -85 88 -75 37 -251 49 -337 23 l-46 -13 17 28 c24
42 2 76 -73 114 -55 27 -69 29 -180 32 -84 2 -134 -1 -165 -11z m309 -23 c95
-42 107 -100 30 -143 -40 -22 -56 -25 -155 -25 -100 0 -115 3 -166 27 -31 15
-62 39 -69 53 -12 22 -11 29 7 53 11 15 41 35 69 45 66 24 219 18 284 -10z
m385 -138 c109 -29 156 -75 129 -127 -44 -84 -329 -86 -418 -3 -51 47 -29 97
54 126 67 23 156 24 235 4z m462 -160 c66 -20 115 -54 128 -89 8 -25 6 -31
-22 -57 -45 -39 -102 -52 -209 -47 -218 12 -312 135 -147 194 51 18 187 18
250 -1z"/>
<path d="M10405 2723 c-302 -64 -674 -342 -997 -743 -169 -211 -307 -455 -316
-557 -10 -115 41 -141 557 -289 124 -35 238 -64 254 -64 76 0 113 37 262 265
217 333 539 727 867 1061 92 94 168 173 168 176 0 3 -44 -39 -97 -94 l-98 -99
-12 88 c-6 48 -13 108 -15 133 -3 44 -4 45 -48 58 -102 28 -375 82 -413 81
-23 0 -73 -7 -112 -16z m-675 -1144 c239 -89 439 -165 443 -169 5 -4 -27 -61
-70 -126 -69 -105 -83 -121 -118 -132 -57 -20 -156 -9 -321 33 -304 78 -532
172 -549 226 -11 33 140 329 168 329 7 0 208 -73 447 -161z"/>
<path d="M5670 2662 c0 -6 11 -13 24 -16 39 -10 86 -55 86 -82 0 -42 -76 -94
-137 -94 -7 0 -13 -5 -13 -10 0 -10 32 -6 78 11 39 15 47 10 24 -14 -62 -66
20 -141 182 -167 72 -11 198 0 237 20 23 13 24 3 4 -24 -24 -32 -18 -57 24
-96 51 -49 133 -72 254 -71 52 0 113 7 140 15 46 14 48 14 33 -3 -18 -20 -21
-63 -6 -91 15 -29 89 -68 155 -83 l60 -14 -82 -6 c-45 -4 -100 -14 -123 -22
l-41 -14 16 22 c40 58 3 120 -96 159 -91 35 -262 36 -354 2 -19 -7 -19 -7 -2
13 26 30 22 79 -9 108 -68 63 -250 93 -372 61 -35 -9 -66 -16 -68 -16 -3 0 5
13 17 29 19 27 20 33 9 60 -12 30 -75 79 -87 68 -3 -4 9 -18 26 -32 60 -51 30
-119 -64 -145 -50 -14 -75 -35 -28 -24 15 4 38 11 51 15 39 15 47 10 24 -14
-51 -54 -4 -123 106 -157 78 -24 226 -27 296 -6 l47 14 -15 -23 c-9 -14 -16
-36 -16 -51 0 -36 55 -87 117 -109 89 -31 264 -31 347 1 19 7 19 6 3 -16 -27
-38 -21 -68 21 -110 58 -58 151 -83 290 -78 89 3 115 7 156 28 146 73 94 181
-109 225 l-60 13 65 1 c58 1 115 10 175 27 16 5 18 4 8 -7 -7 -7 -13 -29 -13
-49 0 -106 240 -182 425 -135 67 17 103 40 124 77 31 55 -29 119 -145 155 -78
24 -253 24 -306 0 -39 -16 -50 -10 -23 13 45 38 -20 126 -115 155 -102 31
-252 31 -334 -1 -16 -6 -17 -4 -7 14 18 34 13 77 -12 100 -77 73 -283 101
-410 56 l-38 -13 16 22 c21 30 19 73 -6 98 -70 70 -274 98 -400 55 -36 -13
-54 -6 -28 9 20 13 27 49 14 75 -18 35 -135 97 -135 72z m465 -183 c94 -48 96
-107 6 -151 -39 -20 -62 -23 -156 -23 -95 0 -117 3 -163 24 -82 37 -103 100
-46 137 53 35 98 44 204 42 91 -3 113 -7 155 -29z m388 -146 c62 -17 127 -67
127 -97 0 -10 -13 -30 -29 -46 -106 -106 -451 -56 -439 63 8 81 189 123 341
80z m-512 -88 c178 -63 122 -188 -90 -202 -125 -9 -257 37 -276 96 -16 51 47
104 144 121 58 11 170 3 222 -15z m966 -81 c112 -31 156 -108 91 -158 -106
-80 -384 -51 -433 45 -23 43 -9 71 47 100 78 40 183 44 295 13z m-513 -95 c50
-18 106 -66 106 -89 0 -25 -26 -60 -59 -78 -122 -68 -360 -36 -414 56 -18 30
-18 34 -3 57 52 80 232 106 370 54z m979 -79 c138 -43 167 -127 64 -182 -37
-20 -57 -23 -157 -23 -108 0 -119 2 -175 30 -130 66 -121 137 25 188 39 14
181 6 243 -13z m-540 -90 c75 -23 127 -67 127 -107 0 -15 -12 -36 -30 -53 -88
-82 -358 -70 -435 21 -42 50 -27 92 44 129 70 36 196 40 294 10z"/>
<path d="M11348 2490 c-8 -29 -57 -88 -213 -256 -194 -210 -271 -297 -356
-399 -139 -169 -310 -404 -419 -576 -175 -275 -182 -278 -413 -219 -342 88
-829 240 -928 290 -31 16 -66 41 -78 56 -12 15 -21 21 -21 15 0 -23 29 -68 55
-85 47 -31 769 -266 999 -325 89 -23 176 -27 209 -9 77 40 219 195 492 533 93
116 232 287 310 380 176 213 224 275 290 381 59 93 88 168 83 211 l-3 28 -7
-25z"/>
<path d="M5515 2145 c46 -34 65 -59 65 -84 0 -55 -78 -99 -191 -108 -38 -3
-69 -10 -69 -15 0 -15 146 6 205 29 10 3 8 -7 -7 -34 -19 -35 -20 -42 -7 -68
32 -67 142 -108 284 -107 51 0 111 7 138 15 26 9 47 12 45 9 -30 -58 -31 -64
-22 -89 47 -135 448 -168 544 -45 49 62 -1 136 -117 172 -83 26 -233 29 -305
7 -48 -15 -61 -10 -33 13 46 38 -9 122 -102 155 -72 25 -226 31 -295 11 -73
-21 -71 -22 -47 19 18 30 19 37 7 62 -14 30 -72 73 -97 73 -13 -1 -12 -3 4
-15z m406 -164 c69 -27 99 -56 99 -97 0 -23 -8 -39 -30 -57 -47 -40 -96 -52
-205 -52 -82 0 -109 5 -150 23 -89 41 -116 87 -80 138 48 69 241 92 366 45z
m461 -183 c104 -48 126 -102 64 -156 -45 -40 -120 -56 -227 -50 -179 10 -281
101 -199 178 68 64 252 78 362 28z"/>
<path d="M5275 1910 c-4 -6 6 -10 24 -10 46 0 138 -38 161 -67 76 -96 -74
-182 -281 -162 -69 7 -118 27 -157 62 -16 15 -25 18 -33 10 -8 -8 -1 -18 27
-37 81 -53 241 -71 357 -41 74 19 72 20 48 -11 -32 -40 -27 -72 17 -113 83
-79 265 -102 431 -55 24 7 24 7 8 -17 -40 -56 0 -128 95 -169 74 -33 242 -40
334 -15 168 45 179 165 22 235 -89 39 -293 45 -358 10 -29 -15 -33 -12 -16 12
25 36 20 85 -12 117 -67 67 -261 100 -390 67 -35 -9 -66 -16 -69 -16 -2 0 5
12 16 26 12 15 21 37 21 49 0 47 -80 103 -178 124 -64 13 -59 13 -67 1z m469
-190 c119 -18 204 -81 188 -142 -2 -10 -18 -29 -34 -43 -92 -78 -337 -72 -424
10 -86 82 1 165 191 184 6 0 41 -4 79 -9z m548 -210 c101 -38 136 -109 80
-163 -77 -74 -268 -85 -393 -21 -126 63 -97 165 58 204 60 15 190 5 255 -20z"/>
</g>
</svg>
